<?xml version="1.0" encoding="iso-8859-1"?>
<!-- Uploaded to: SVG Repo, www.svgrepo.com, Generator: SVG Repo Mixer Tools -->
<svg height="800px" width="800px" version="1.1" id="Layer_1" xmlns="http://www.w3.org/2000/svg" xmlns:xlink="http://www.w3.org/1999/xlink" 
	 viewBox="0 0 512 512" xml:space="preserve">
<polygon style="fill:#F4B2B0;" points="352.233,211.394 283.249,108.956 214.265,211.394 249.699,211.394 249.699,477.231 
	316.798,477.231 316.798,211.394 "/>
<path style="fill:#B3404A;" d="M509.524,333.999l-68.984-102.437c-2.699-4.009-7.216-6.411-12.048-6.411
	c-4.832,0-9.349,2.402-12.048,6.411l-68.983,102.437c-2.998,4.453-3.297,10.197-0.774,14.937c2.523,4.739,7.454,7.701,12.822,7.701
	h20.909v106.071h-49.095V225.918h20.909c5.368,0,10.299-2.961,12.822-7.701c2.521-4.741,2.224-10.484-0.774-14.937l-68.984-102.438
	c-2.699-4.009-7.216-6.411-12.048-6.411s-9.349,2.402-12.048,6.411l-68.983,102.438c-2.998,4.453-3.297,10.197-0.774,14.937
	c2.523,4.739,7.454,7.701,12.822,7.701h20.909v236.789h-49.095v-62.47h20.909c8.02,0,14.524-6.504,14.524-14.524
	s-6.504-14.524-14.524-14.524h-35.433c-8.02,0-14.524,6.504-14.524,14.524v76.994h-38.049v-76.994
	c0-8.02-6.504-14.524-14.524-14.524h-8.142l41.692-61.913l20.131,29.895c4.482,6.654,13.509,8.412,20.161,3.935
	c6.654-4.481,8.415-13.508,3.935-20.161l-32.178-47.783c-2.699-4.009-7.216-6.411-12.048-6.411s-9.349,2.402-12.048,6.411
	l-68.983,102.44c-2.998,4.453-3.297,10.197-0.774,14.937c2.523,4.739,7.454,7.701,12.822,7.701h20.909v62.47H29.048V34.767
	c0-8.02-6.504-14.524-14.524-14.524S0,26.747,0,34.767v442.465c0,8.02,6.504,14.524,14.524,14.524h442.465h5.053
	c8.02,0,14.524-6.504,14.524-14.524s-6.504-14.524-14.524-14.524h-5.053h-47.523V342.113c0-8.02-6.504-14.524-14.524-14.524H386.8
	l41.692-61.911l41.693,61.911h-8.142c-8.02,0-14.524,6.504-14.524,14.524v78.011c0,8.02,6.504,14.524,14.524,14.524
	s14.524-6.504,14.524-14.524v-63.487h20.909c5.368,0,10.299-2.961,12.822-7.701C512.819,344.196,512.521,338.452,509.524,333.999z
	 M264.224,462.707V211.394c0-8.02-6.504-14.524-14.524-14.524h-8.142l41.692-61.911l41.693,61.911H316.8
	c-8.02,0-14.524,6.504-14.524,14.524v251.313H264.224z"/>
</svg>