<?xml version="1.0" standalone="no"?>
<!DOCTYPE svg PUBLIC "-//W3C//DTD SVG 20010904//EN"
 "http://www.w3.org/TR/2001/REC-SVG-20010904/DTD/svg10.dtd">
<svg version="1.0" xmlns="http://www.w3.org/2000/svg"
 width="28.000000pt" height="28.000000pt" viewBox="0 0 28.000000 28.000000"
 preserveAspectRatio="xMidYMid meet">

<g transform="translate(0.000000,28.000000) scale(0.100000,-0.100000)"
fill="#000000" stroke="none">
<path d="M69 245 c-39 -21 -59 -59 -59 -109 0 -34 6 -50 28 -74 74 -79 198
-37 207 69 3 24 2 36 -1 27 -4 -13 -19 -18 -62 -20 -41 -2 -56 -7 -54 -16 1
-8 -2 -11 -8 -7 -6 3 -8 11 -5 16 4 5 -16 9 -44 9 -47 0 -51 2 -51 24 0 13 12
35 27 50 25 25 38 31 93 39 18 3 15 5 -10 5 -19 1 -47 -5 -61 -13z"/>
<path d="M203 217 c18 -18 34 -31 36 -30 6 4 -51 63 -60 63 -4 0 7 -15 24 -33z"/>
<path d="M118 233 c7 -3 16 -2 19 1 4 3 -2 6 -13 5 -11 0 -14 -3 -6 -6z"/>
<path d="M107 184 c-6 -33 18 -44 41 -18 14 15 15 16 1 6 -14 -11 -16 -9 -11
13 3 18 0 25 -11 25 -8 0 -17 -12 -20 -26z"/>
</g>
</svg>
