<?xml version="1.0" standalone="no"?>
<!DOCTYPE svg PUBLIC "-//W3C//DTD SVG 20010904//EN"
 "http://www.w3.org/TR/2001/REC-SVG-20010904/DTD/svg10.dtd">
<svg version="1.0" xmlns="http://www.w3.org/2000/svg"
 width="204.000000pt" height="192.000000pt" viewBox="0 0 204.000000 192.000000"
 preserveAspectRatio="xMidYMid meet">

<g transform="translate(0.000000,192.000000) scale(0.100000,-0.100000)"
fill="#000000" stroke="none">
<path d="M40 1874 c-17 -28 -31 -66 -35 -98 -3 -28 -5 -416 -3 -862 l3 -811
30 -49 31 -49 954 0 954 0 31 49 30 49 0 857 0 857 -30 49 -31 49 -952 3 -952
2 -30 -46z m510 -193 c74 -39 116 -138 90 -216 -37 -113 -153 -164 -258 -114
-129 63 -134 253 -8 330 41 25 129 25 176 0z m1023 -480 c52 -25 76 -44 107
-85 72 -95 73 -105 77 -524 l4 -372 -155 0 -155 0 -3 307 c-3 305 -3 308 -27
350 -32 56 -76 77 -152 71 -70 -5 -105 -27 -134 -84 -18 -36 -20 -62 -23 -341
l-3 -303 -155 0 -154 0 2 493 3 492 153 3 152 3 0 -57 0 -57 54 52 c30 28 56
51 58 51 2 0 28 9 58 20 84 31 204 23 293 -19z m-953 -486 l0 -495 -155 0
-155 0 0 495 0 495 155 0 155 0 0 -495z"/>
</g>
</svg>
