<?xml version="1.0" encoding="iso-8859-1"?>
<!-- Uploaded to: SVG Repo, www.svgrepo.com, Generator: SVG Repo Mixer Tools -->
<svg height="800px" width="800px" version="1.1" id="Layer_1" xmlns="http://www.w3.org/2000/svg" xmlns:xlink="http://www.w3.org/1999/xlink" 
	 viewBox="0 0 512 512" xml:space="preserve">
<path style="fill:#E1A546;" d="M52.529,503.706H34.835c-4.886,0-8.847-3.961-8.847-8.847V79.067c0-9.772,7.921-17.693,17.693-17.693
	l0,0c9.772,0,17.693,7.921,17.693,17.693V494.86C61.375,499.745,57.414,503.706,52.529,503.706z"/>
<path style="fill:#7DF5A5;" d="M494.852,317.927H17.142c-4.886,0-8.847-3.961-8.847-8.847V114.454c0-4.886,3.961-8.847,8.847-8.847
	h477.71c6.313,0,10.594,6.422,8.167,12.249l-39.13,93.911l39.13,93.911C505.446,311.504,501.164,317.927,494.852,317.927z"/>
<circle style="fill:#FFC850;" cx="43.682" cy="34.834" r="26.54"/>
<path style="fill:#64DCA0;" d="M87.915,317.927H17.142c-4.886,0-8.847-3.961-8.847-8.847V114.454c0-4.886,3.961-8.847,8.847-8.847
	h70.773V317.927z"/>
<path d="M472.874,211.767l37.801-90.721c2.209-5.302,1.626-11.322-1.561-16.101s-8.517-7.631-14.261-7.631H34.283V79.067
	c0-5.183,4.217-9.4,9.4-9.4s9.4,4.217,9.4,9.4c0,4.58,3.713,8.294,8.294,8.294s8.294-3.713,8.294-8.294
	c0-6.05-2.084-11.619-5.565-16.04c8.723-6.336,14.41-16.611,14.41-28.193C78.516,15.627,62.889,0,43.682,0
	S8.848,15.627,8.848,34.834c0,11.582,5.687,21.857,14.411,28.193c-3.48,4.421-5.563,9.99-5.563,16.04v18.246h-0.553
	c-9.452,0-17.14,7.689-17.14,17.14V309.08c0,9.452,7.689,17.14,17.14,17.14h0.553V494.86c0,9.452,7.689,17.14,17.14,17.14H52.53
	c9.452,0,17.14-7.689,17.14-17.14V353.313c0-4.58-3.713-8.294-8.294-8.294s-8.294,3.713-8.294,8.294V494.86
	c0,0.305-0.248,0.553-0.553,0.553H34.836c-0.305,0-0.553-0.248-0.553-0.553V326.22h460.57c5.744,0,11.075-2.853,14.261-7.632
	c3.186-4.779,3.77-10.797,1.56-16.101L472.874,211.767z M43.682,16.587c10.061,0,18.246,8.185,18.246,18.246
	S53.743,53.08,43.682,53.08s-18.246-8.185-18.246-18.246S33.621,16.587,43.682,16.587z M495.312,309.386
	c-0.165,0.247-0.356,0.247-0.46,0.247H17.142c-0.305,0-0.553-0.248-0.553-0.553V114.454c0-0.305,0.248-0.553,0.553-0.553h477.71
	c0.103,0,0.296,0,0.46,0.247c0.164,0.247,0.091,0.425,0.05,0.52l-39.13,93.911c-0.85,2.041-0.85,4.338,0,6.381l39.13,93.911
	C495.402,308.963,495.476,309.14,495.312,309.386z"/>
<path d="M79.069,150.393H61.375c-4.58,0-8.294,3.713-8.294,8.294v106.16c0,4.58,3.713,8.294,8.294,8.294s8.294-3.713,8.294-8.294
	v-27.093h9.4c24.085,0,43.68-19.595,43.68-43.68S103.154,150.393,79.069,150.393z M79.069,221.166h-9.4v-54.186h9.4
	c14.939,0,27.093,12.154,27.093,27.093C106.161,209.012,94.007,221.166,79.069,221.166z"/>
<path d="M185.228,166.981c4.58,0,8.294-3.713,8.294-8.294s-3.713-8.294-8.294-8.294h-44.233c-4.58,0-8.294,3.713-8.294,8.294v106.16
	c0,4.58,3.713,8.294,8.294,8.294h44.233c4.58,0,8.294-3.713,8.294-8.294s-3.713-8.294-8.294-8.294h-35.94V220.06h18.246
	c4.58,0,8.294-3.713,8.294-8.294s-3.713-8.294-8.294-8.294h-18.246v-36.492H185.228z"/>
<path d="M424.088,166.981c4.58,0,8.294-3.713,8.294-8.294s-3.713-8.294-8.294-8.294h-44.233c-4.58,0-8.294,3.713-8.294,8.294v106.16
	c0,4.58,3.713,8.294,8.294,8.294h44.233c4.58,0,8.294-3.713,8.294-8.294s-3.713-8.294-8.294-8.294h-35.94V220.06h18.246
	c4.58,0,8.294-3.713,8.294-8.294s-3.713-8.294-8.294-8.294h-18.246v-36.492H424.088z"/>
<path d="M255.201,156.675c-0.922-3.692-4.24-6.282-8.046-6.282h-8.847c-3.805,0-7.123,2.59-8.046,6.282l-26.54,106.16
	c-1.111,4.443,1.59,8.946,6.035,10.058c4.439,1.115,8.947-1.59,10.058-6.035l7.276-29.104h31.283l7.276,29.104
	c0.942,3.769,4.324,6.284,8.039,6.284c0.666,0,1.342-0.081,2.018-0.25c4.444-1.11,7.146-5.614,6.035-10.058L255.201,156.675z
	 M231.238,221.166l11.494-45.977l11.494,45.977H231.238z"/>
<path d="M326.775,166.981c7.731,0,14.65,4.896,17.217,12.183c1.521,4.32,6.258,6.59,10.577,5.067
	c4.32-1.522,6.589-6.258,5.067-10.577c-4.899-13.914-18.106-23.26-32.861-23.26c-19.207,0-34.834,15.627-34.834,34.834v53.08
	c0,19.207,15.626,34.834,34.834,34.834c14.737,0,27.939-9.331,32.849-23.22c1.526-4.318-0.736-9.057-5.055-10.584
	c-4.317-1.525-9.057,0.736-10.584,5.055c-2.571,7.274-9.488,12.162-17.21,12.162c-10.061,0-18.246-8.185-18.246-18.246v-53.08
	C308.529,175.165,316.714,166.981,326.775,166.981z"/>
</svg>