<?xml version="1.0" standalone="no"?>
<!DOCTYPE svg PUBLIC "-//W3C//DTD SVG 20010904//EN"
 "http://www.w3.org/TR/2001/REC-SVG-20010904/DTD/svg10.dtd">
<svg version="1.0" xmlns="http://www.w3.org/2000/svg"
 width="204.000000pt" height="192.000000pt" viewBox="0 0 204.000000 192.000000"
 preserveAspectRatio="xMidYMid meet">

<g transform="translate(0.000000,192.000000) scale(0.100000,-0.100000)"
fill="#000000" stroke="none">
<path d="M17 1868 c5 -7 79 -105 165 -218 85 -113 249 -329 364 -480 116 -151
213 -281 217 -287 5 -8 -89 -123 -260 -320 -147 -169 -309 -354 -360 -412
l-92 -106 152 -3 152 -3 30 33 c17 19 142 163 279 320 137 158 253 285 256
283 4 -2 42 -50 85 -107 44 -57 124 -161 178 -233 55 -71 127 -167 161 -212
l61 -82 313 -1 314 0 -38 53 c-44 59 -398 530 -606 805 -77 100 -141 189 -144
196 -3 7 13 32 34 57 129 149 598 688 615 707 l20 22 -155 0 -156 0 -252 -290
c-139 -160 -256 -290 -261 -288 -4 2 -105 132 -224 291 l-217 287 -320 0
c-255 0 -318 -3 -311 -12z m655 -318 c64 -85 315 -418 557 -740 l440 -585 -80
-3 c-53 -2 -86 1 -95 9 -8 7 -68 82 -133 168 -200 263 -744 977 -871 1143 -66
86 -120 159 -120 163 0 3 42 4 92 3 l93 -3 117 -155z"/>
</g>
</svg>
